<?xml version="1.0" encoding="utf-8"?>
<!-- Generator: Adobe Illustrator 16.0.0, SVG Export Plug-In . SVG Version: 6.00 Build 0)  -->
<!DOCTYPE svg PUBLIC "-//W3C//DTD SVG 1.1//EN" "http://www.w3.org/Graphics/SVG/1.1/DTD/svg11.dtd">
<svg version="1.1" id="Layer_3" xmlns="http://www.w3.org/2000/svg" xmlns:xlink="http://www.w3.org/1999/xlink" x="0px" y="0px"
	 width="552.96px" height="290.879px" viewBox="0 0 552.96 290.879" enable-background="new 0 0 552.96 290.879"
	 xml:space="preserve">
<radialGradient id="SVGID_1_" cx="139.48" cy="60.4395" r="363.0565" gradientTransform="matrix(1 0 0 1 26.52 -9.3071)" gradientUnits="userSpaceOnUse">
	<stop  offset="0" style="stop-color:#FFFFFF"/>
	<stop  offset="0.5" style="stop-color:#4D6998"/>
	<stop  offset="1" style="stop-color:#1D1D1B"/>
</radialGradient>
<ellipse fill="url(#SVGID_1_)" cx="276.48" cy="145.439" rx="276.48" ry="145.439"/>
<ellipse fill="#6682BA" cx="276.48" cy="145.439" rx="265.68" ry="134.641"/>
<g>
	<path fill="#FFFFFF" d="M330.298,188.957c0,0,13.18-67.825,13.18-67.825c2.973-15.309,0.5-26.729-7.351-33.943
		c-7.603-6.982-20.511-10.376-39.461-10.376h-22.822l6.532-33.606c0.246-1.267-0.088-2.577-0.907-3.572
		c-0.821-0.995-2.044-1.572-3.334-1.572h-31.5c-2.068,0-3.846,1.465-4.241,3.496l-13.995,72.006
		c-1.273-8.102-4.408-15.068-9.427-20.813c-9.239-10.576-23.854-15.938-43.441-15.938h-61.055c-2.068,0-3.846,1.465-4.24,3.496
		l-28.328,145.75c-0.246,1.267,0.086,2.576,0.907,3.571c0.82,0.995,2.043,1.572,3.333,1.572h31.75c2.068,0,3.846-1.466,4.24-3.495
		l6.852-35.255h23.634c12.404,0,22.82-1.344,30.957-3.993c8.318-2.704,15.972-7.291,22.721-13.607
		c5.451-5.01,9.957-10.617,13.424-16.668l-5.661,29.125c-0.246,1.267,0.086,2.576,0.907,3.571s2.043,1.572,3.333,1.572h31.5
		c2.068,0,3.846-1.466,4.241-3.495l15.547-80.005h21.614c9.21,0,11.906,1.834,12.639,2.623c0.667,0.719,2.052,3.254,0.499,11.245
		l-12.531,64.488c-0.246,1.267,0.087,2.576,0.908,3.571c0.82,0.995,2.043,1.572,3.333,1.572h32
		C328.125,192.452,329.903,190.986,330.298,188.957z M184.26,132.917c-1.979,10.167-5.707,17.419-11.083,21.558
		c-5.461,4.205-14.198,6.338-25.966,6.338H133.14l10.176-52.36h18.192c13.366,0,18.751,2.857,20.913,5.253
		C185.418,117.028,186.054,123.672,184.26,132.917z"/>
	<path fill="#FFFFFF" d="M465.004,92.751c-9.239-10.576-23.855-15.938-43.44-15.938h-61.056c-2.068,0-3.846,1.465-4.24,3.496
		l-28.328,145.75c-0.246,1.267,0.087,2.576,0.907,3.571c0.821,0.995,2.043,1.572,3.334,1.572h31.75c2.067,0,3.846-1.466,4.239-3.495
		l6.853-35.255h23.634c12.404,0,22.82-1.344,30.957-3.993c8.318-2.704,15.973-7.291,22.721-13.607
		c5.628-5.173,10.261-10.979,13.77-17.257c3.503-6.271,6.021-13.27,7.485-20.802C477.2,118.223,474.311,103.405,465.004,92.751z
		 M432.076,132.917c-1.979,10.167-5.707,17.419-11.082,21.558c-5.462,4.205-14.198,6.338-25.967,6.338h-14.072l10.177-52.36h18.192
		c13.366,0,18.751,2.857,20.913,5.253C433.234,117.028,433.87,123.672,432.076,132.917z"/>
</g>
<g>
	<path fill="#00000E" d="M161.508,104.132c12.062,0,20.102,2.227,24.121,6.68c4.016,4.453,4.973,12.098,2.871,22.93
		c-2.195,11.281-6.422,19.333-12.688,24.157c-6.266,4.823-15.801,7.234-28.602,7.234h-19.312l11.855-61H161.508z M84.149,226.883
		h31.75l7.531-38.75h27.195c12,0,21.871-1.258,29.621-3.782c7.75-2.519,14.793-6.746,21.133-12.68
		c5.32-4.891,9.625-10.284,12.922-16.184c3.293-5.895,5.633-12.402,7.016-19.519c3.359-17.277,0.824-30.734-7.598-40.375
		s-21.82-14.461-40.188-14.461h-61.055L84.149,226.883z"/>
	<path fill="#00000E" d="M244.635,42.382h31.5l-7.531,38.75h28.062c17.656,0,29.836,3.082,36.539,9.238
		c6.703,6.16,8.711,16.141,6.031,29.938l-13.18,67.825h-32l12.531-64.489c1.426-7.336,0.902-12.34-1.574-15.008
		s-7.746-4.004-15.805-4.004h-25.176l-16.227,83.5h-31.5L244.635,42.382z"/>
	<path fill="#00000E" d="M409.324,104.132c12.062,0,20.102,2.227,24.121,6.68c4.017,4.453,4.974,12.098,2.871,22.93
		c-2.195,11.281-6.421,19.333-12.688,24.157c-6.266,4.823-15.801,7.234-28.602,7.234h-19.312l11.854-61H409.324z M331.965,226.883
		h31.75l7.53-38.75h27.195c12,0,21.871-1.258,29.621-3.782c7.75-2.519,14.793-6.746,21.133-12.68
		c5.32-4.891,9.625-10.284,12.922-16.184c3.293-5.895,5.633-12.402,7.016-19.519c3.359-17.277,0.825-30.734-7.598-40.375
		c-8.422-9.641-21.82-14.461-40.188-14.461h-61.054L331.965,226.883z"/>
</g>
<g>
	<path fill="#FFFFFF" d="M148.576,206.203c-2.625,0-4.515,0.834-5.67,2.502s-1.733,4.409-1.733,8.224
		c0,3.309,0.554,5.64,1.661,6.993s3.021,2.03,5.742,2.03h10.418v5.25h-10.726c-2.365,0-4.225-0.201-5.578-0.605
		c-1.354-0.402-2.625-1.083-3.814-2.04c-1.545-1.23-2.704-2.833-3.476-4.81c-0.772-1.975-1.159-4.337-1.159-7.085
		c0-5.332,1.155-9.266,3.466-11.802s5.893-3.805,10.746-3.805h10.541v5.147H148.576z"/>
	<path fill="#FFFFFF" d="M185.059,220.148c0,3.473-1.056,6.245-3.168,8.315c-2.112,2.072-4.959,3.107-8.542,3.107
		s-6.439-1.039-8.572-3.117s-3.199-4.847-3.199-8.306c0-3.473,1.066-6.251,3.199-8.337c2.133-2.084,4.99-3.127,8.572-3.127
		c3.555,0,6.395,1.043,8.521,3.127C183.996,213.897,185.059,216.676,185.059,220.148z M167.709,220.148
		c0,2.105,0.492,3.746,1.477,4.922s2.358,1.764,4.122,1.764c1.75,0,3.124-0.588,4.122-1.764s1.497-2.816,1.497-4.922
		s-0.496-3.743-1.487-4.911c-0.991-1.17-2.369-1.754-4.132-1.754c-1.75,0-3.121,0.588-4.112,1.764S167.709,218.057,167.709,220.148z
		"/>
	<path fill="#FFFFFF" d="M188.627,209.074h9.823c2.297,0,3.907,0.414,4.83,1.241s1.384,2.272,1.384,4.337v3.691h-5.578v-2.851
		c0-0.861-0.154-1.438-0.461-1.732s-1.008-0.441-2.102-0.441h-2.051v17.883h-5.845V209.074z"/>
	<path fill="#FFFFFF" d="M208.376,209.074h10.992c3.322,0,5.694,0.626,7.116,1.876c1.422,1.252,2.133,3.326,2.133,6.225v14.027
		h-5.845v-13.31c0-1.654-0.256-2.728-0.769-3.22s-1.542-0.738-3.086-0.738h-4.696v17.268h-5.845V209.074z"/>
	<path fill="#FFFFFF" d="M249.249,216.088l-4.614,15.114h-6.48l-7.731-22.128h6.132l4.881,15.483l4.819-15.483h6.214l4.922,15.483
		l4.881-15.483h6.009l-7.485,22.128h-6.727L249.249,216.088z"/>
	<path fill="#FFFFFF" d="M270.7,209.074h11.977c3.021,0,5.298,0.694,6.829,2.081c1.531,1.389,2.297,3.449,2.297,6.184v13.863
		h-15.709c-2.201,0-3.893-0.554-5.076-1.661s-1.774-2.68-1.774-4.717c0-2.516,0.68-4.32,2.041-5.414s3.62-1.641,6.778-1.641h7.69
		v-0.554c0-1.312-0.386-2.235-1.159-2.769c-0.771-0.533-2.149-0.8-4.132-0.8H270.7V209.074z M278.472,226.752h7.321v-4.573h-6.891
		c-1.367,0-2.311,0.185-2.83,0.554s-0.779,1.012-0.779,1.928c0,0.779,0.208,1.323,0.625,1.63
		C276.336,226.599,277.187,226.752,278.472,226.752z"/>
	<path fill="#FFFFFF" d="M302.917,231.202h-6.091v-30.146h6.091V231.202z"/>
	<path fill="#FFFFFF" d="M313.93,231.202h-6.091v-30.146h6.091V231.202z"/>
</g>
</svg>
